<svg width="48" height="45" viewBox="0 0 48 45" fill="none" xmlns="http://www.w3.org/2000/svg">
<path fill-rule="evenodd" clip-rule="evenodd" d="M19.2867 23.5564C19.1575 23.533 14.4419 23.4998 14.1358 23.5201C13.9857 23.5301 13.9697 23.5583 12.9451 25.6329C12.4353 26.6653 8.86123 33.8553 8.38042 34.8158C7.91599 35.7437 7.88582 35.8285 8.0086 35.8603C8.06441 35.8748 8.82536 35.8469 9.69947 35.7984C10.5736 35.7499 11.3055 35.7276 11.3259 35.7488C11.3463 35.77 11.0971 36.3069 10.7721 36.9418C10.4471 37.5768 10.0189 38.4177 9.82063 38.8106C9.06976 40.2985 8.54458 41.3358 7.74706 42.9064C7.29428 43.7981 6.92151 44.5653 6.91873 44.6113C6.91589 44.6573 6.93943 44.7013 6.97103 44.709C7.00255 44.7167 7.59052 44.0849 8.27757 43.3051C8.96462 42.5252 10.1884 41.1389 10.9971 40.2244C11.8058 39.3099 13.0991 37.8459 13.8709 36.9711C14.6428 36.0963 15.7287 34.8671 16.2841 34.2395C16.8395 33.612 17.3284 33.0593 17.3705 33.0112C17.4126 32.9631 17.4296 32.8912 17.4081 32.8512C17.3867 32.8112 16.4651 32.7197 15.3601 32.6479L13.351 32.5174L13.5727 32.1719C13.6947 31.9819 14.1693 31.2829 14.6276 30.6185C15.0858 29.9542 15.7992 28.9177 16.2131 28.3152C16.6269 27.7127 17.3848 26.6113 17.8975 25.8676C19.1646 24.0292 19.378 23.7139 19.4033 23.6426C19.4152 23.609 19.3627 23.5702 19.2867 23.5564Z" fill="#FFE167"/>
<path fill-rule="evenodd" clip-rule="evenodd" d="M40.7477 3.46849C40.5744 3.43542 34.2578 3.33671 33.8481 3.36065C33.647 3.37239 33.6259 3.41038 32.2732 6.20158C31.6001 7.59056 26.881 17.2637 26.2461 18.5559C25.6328 19.8041 25.5932 19.9185 25.7579 19.9628C25.8328 19.983 26.8518 19.954 28.0222 19.8985C29.1926 19.8429 30.1727 19.8211 30.2002 19.85C30.2277 19.8789 29.899 20.6014 29.4697 21.4555C29.0404 22.3096 28.4749 23.4409 28.213 23.9695C27.2214 25.9711 26.5277 27.3665 25.4744 29.4793C24.8764 30.6788 24.3843 31.7111 24.381 31.7732C24.3777 31.8354 24.4096 31.8951 24.452 31.9058C24.4943 31.9165 25.2759 31.0697 26.1888 30.024C27.1016 28.9783 28.7277 27.1193 29.8023 25.8929C30.8768 24.6666 32.5951 22.7035 33.6207 21.5304C34.6462 20.3574 36.0891 18.709 36.8271 17.8675C37.5651 17.026 38.2147 16.2848 38.2707 16.2204C38.3266 16.1559 38.3486 16.0588 38.3196 16.0046C38.2905 15.9503 37.0552 15.8163 35.5744 15.7066L32.8821 15.5074L33.1757 15.0431C33.3373 14.7878 33.9665 13.8488 34.574 12.9565C35.1814 12.0642 36.1272 10.6719 36.6758 9.86273C37.2244 9.05344 38.2292 7.57401 38.9088 6.57509C40.5886 4.10582 40.8714 3.68226 40.9047 3.58632C40.9204 3.54094 40.8497 3.48792 40.7477 3.46849Z" fill="#FFE167"/>
</svg>
