<svg width="1200" height="198" viewBox="0 0 1200 198" fill="none" xmlns="http://www.w3.org/2000/svg">
<path d="M-147.824 118.155C-131.073 131.721 -112.804 142.742 -94.4556 153.968C-78.0706 163.993 -60.0556 172.564 -41.9284 178.974C-31.6453 182.611 -20.8402 184.389 -10.2722 186.971C6.36192 191.036 22.3832 194.617 39.5829 195.615C66.1272 197.154 92.5538 197.446 119.024 195.632C140.927 194.13 162.838 189.595 183.63 181.903C201.287 175.371 220.054 163.615 232.296 149.113C239.845 140.169 245.943 127.726 250.295 116.93C256.666 101.124 261.963 88.1204 260.795 71.0803C260.601 68.256 260.135 64.8843 259.329 61.3364C256.764 50.0474 249.199 40.213 238.791 35.143V35.143C226.561 29.1848 212.157 33.9731 205.448 44.9177C201.819 52.1728 202.197 56.7862 202.731 64.5758C203.005 68.5694 205.343 77.0409 207.875 80.316C211.04 84.411 215.456 88.4671 219.917 91.1028C235.378 100.238 255.556 98.5775 272.613 97.4083C297.821 95.6803 328.929 63.1468 328.929 63.1468M1198.77 168.484C1195.43 171.051 1190.38 172.126 1186.33 173.723C1177.24 177.304 1164.87 176.19 1155.33 176.844C1113.37 179.721 1069.94 175.498 1030.37 160.292C1004.3 150.277 974.429 139.858 962.454 112.219C957.806 101.489 955.713 89.7578 954.918 78.1478C954.223 68.0076 952.952 57.7297 955.08 47.6857C958.269 32.6346 964.186 21.2954 980.7 20.1633C996.459 19.0831 1012.6 26.57 1013.8 44.1587C1014.47 53.8238 1015.07 62.4886 1012.81 71.9865C1009.87 84.3701 1001.7 101.46 992.969 110.127C972.8 130.151 949.542 132.647 920.842 132.614C902.41 132.593 883.046 122.01 869.301 110.331C855.216 98.3623 842.908 85.8147 827.041 76.0489C817.447 70.1438 803.99 59.4422 791.834 60.0223C774.915 60.8296 755.855 61.1927 741.533 71.1454V71.1454C718.024 87.4825 695.538 106.975 667.423 112.372C663.286 113.167 658.982 113.792 654.414 114.246C639.837 115.696 623.921 116.551 610.024 110.91C583.136 99.9944 560.326 70.8439 550.777 44.0521V44.0521C542.383 20.4992 514.032 6.10894 489.299 2.43779C413.624 -8.79479 351.25 35.6493 328.916 63.0393" stroke="#FFE167" stroke-linecap="round" stroke-dasharray="10 10"/>
</svg>
