<svg width="108" height="30" viewBox="0 0 108 30" fill="none" xmlns="http://www.w3.org/2000/svg">
<path fill-rule="evenodd" clip-rule="evenodd" d="M69.7193 11.8903C69.9301 14.3595 71.1011 16.6475 72.9806 18.2625C73.8663 19.0109 74.8425 19.6449 75.8864 20.1496C77.9709 20.8223 80.2251 20.7449 82.2586 19.9308L83.7491 19.1582C84.2722 18.8912 84.7729 18.5826 85.2464 18.2352C87.6326 16.0952 86.6138 18.8163 89.6974 18.9189C90.8324 18.9189 91.5913 18.1805 92.4938 17.6062C93.0285 18.2475 93.6392 18.8215 94.3124 19.3155C96.1653 20.5735 98.5856 17.3053 99.2352 17.0592C99.8642 18.2215 100.965 19.8966 101.97 19.9718C104.985 20.4778 107.638 16.7174 107.782 14.0782C107.269 14.0782 107.282 13.9893 106.934 14.3517C106.38 15.4525 102.496 20.7718 101.252 16.5874C100.951 15.1585 101.621 13.6338 102.155 12.4852C102.688 11.3365 105.676 11.487 106.694 9.32643C105.587 9.26489 104.869 9.58624 103.713 9.49736C103.837 7.86329 104.322 7.74705 103.522 6.28391C102.476 5.14211 101.177 5.6002 100.746 6.96762C100.438 7.97268 99.8642 9.74349 99.5634 10.017C98.9822 10.5503 95.9944 10.5639 95.3107 10.2905C95.2283 10.3292 95.1563 10.387 95.1007 10.459C95.045 10.5311 95.0073 10.6153 94.9906 10.7048C94.9739 10.7943 94.9787 10.8864 95.0047 10.9737C95.0306 11.0609 95.0769 11.1408 95.1397 11.2066C96.8559 12.533 97.3139 12.0749 98.9685 12.3279C98.7702 13.7432 95.9328 20.3 94.3261 14.8918C94.2441 14.6252 94.3876 14.3449 94.1278 13.8936C93.9569 13.6065 93.5535 13.08 93.3347 12.7723C92.3707 11.4459 90.1623 11.2682 88.6855 11.7126C87.824 11.9724 86.2993 12.9501 86.0327 13.8389C85.9096 14.2492 85.937 15.5892 85.8344 15.7396C84.4039 16.6572 82.9224 17.4926 81.3971 18.242C80.3926 18.6991 79.2913 18.9026 78.1898 18.8347C77.0883 18.7667 76.0203 18.4294 75.0796 17.8523C71.5585 15.4388 72.3038 11.6579 74.0336 8.48546C75.7633 5.31304 79.934 1.0877 83.4004 4.643C84.6448 5.91471 83.8653 6.89242 83.7012 7.90431C84.6926 9.17601 86.4019 9.31959 86.4839 7.1659C86.8668 -1.8796 69.0903 0.855243 69.7193 11.8903ZM91.3383 14.0099C91.5092 12.745 88.2684 13.3261 88.1659 14.8782C88.0633 16.4302 91.181 16.3618 91.3383 14.0099ZM11.1868 2.2295C11.344 2.27053 11.4603 2.27736 11.6107 2.32522C12.7406 2.65527 13.7123 3.38408 14.3455 4.37636C15.6104 6.42749 15.2002 10.9947 14.0652 12.9706C12.6978 15.3431 9.34076 19.8761 6.22987 18.0232C0.910596 14.8577 4.86245 0.793708 11.2141 2.25001M27.7941 8.87518C27.7941 7.72654 26.8643 8.97774 26.6934 9.26489C24.6422 12.6356 27.8352 17.1618 27.7941 8.87518ZM35.9235 10.8443C36.4499 10.4819 35.9918 9.8734 35.7184 9.64777C33.2023 7.54194 33.3254 12.4852 35.9235 10.8443ZM36.7371 20.2043C37.5917 20.2726 37.6601 19.9581 37.4208 19.3086C37.4208 19.3086 37.3798 19.2471 37.3729 19.2197L36.9764 18.536C35.8004 17.1686 37.455 12.7997 35.5679 12.6971C35.3771 12.6675 35.1819 12.708 35.0186 12.811C34.8552 12.9141 34.7346 13.0728 34.6791 13.2578C34.1584 14.0144 33.9457 14.9411 34.0843 15.849C34.221 17.0045 29.141 21.0384 28.6146 16.9772C28.6137 16.5411 28.7689 16.1191 29.0522 15.7875C29.607 14.7803 30.0648 13.7226 30.4196 12.6288C30.8435 11.0631 31.3016 6.90609 30.7204 6.29759C29.7701 5.29937 28.3343 5.40876 27.2198 6.40698C26.3583 7.17957 25.3054 9.73666 25.2439 10.94C25.0456 14.7141 25.6131 14.5021 25.702 15.3636C26.1601 16.8951 23.8286 18.3036 22.3997 18.4882C17.2855 19.4248 19.4118 8.84099 19.1794 6.43433C19.1794 4.25329 16.2394 1.33384 14.0379 0.800545C13.3541 0.643292 12.1782 0.417667 11.3851 0.294599C6.88624 -0.389113 2.81815 0.800545 0.965293 5.08058C-0.0566278 7.33772 -0.274748 9.87676 0.347234 12.2751C0.969216 14.6735 2.39379 16.7865 4.38385 18.2625C5.3137 18.9462 6.65377 19.8693 7.74087 20.0128C13.8943 20.8265 13.5319 16.2729 15.9933 15.2269C17.5111 16.7242 18.5914 19.0556 20.9912 19.965C21.4604 20.1083 21.9444 20.1977 22.4338 20.2316C25.4353 20.4641 26.4062 18.1805 27.2198 18.2215C28.0334 18.2625 29.271 20.5051 31.2059 20.4231C32.6348 20.3615 32.9083 19.8282 33.51 18.7822C33.6467 18.5839 33.7493 18.4335 33.8655 18.2284L34.1321 17.7156L34.1868 17.6335C35.4585 17.825 35.1304 20.1017 36.7439 20.2316M58.4244 3.6653C59.5184 3.50804 59.238 4.46524 59.1081 5.20365L58.6022 6.89242C58.4518 7.39153 57.4672 9.44266 56.9749 9.62726C56.1955 7.78808 55.9425 4.04818 58.4518 3.68581M54.9853 17.6404C54.9853 16.4917 55.5802 15.7533 56.4827 14.7756C56.8519 14.3859 57.3373 13.6748 57.8501 13.5654C58.1783 13.4971 58.6706 13.6612 59.4431 14.5773C59.1902 15.6713 55.8947 17.6609 54.9922 17.6472M53.3649 18.1463C54.3905 19.6231 55.4161 19.9855 57.057 19.3018C58.3492 18.7616 60.8379 17.2506 61.1593 16.1294L61.3302 16.1704C62.1712 16.9635 64.906 19.1924 65.7196 19.5274C66.1709 19.712 68.2972 20.3205 67.969 19.124C67.8665 18.7343 67.1896 18.3719 66.8341 18.1805C66.2261 17.8841 65.6566 17.5145 65.1385 17.0797L62.1233 14.5568C62.1233 14.338 62.9506 13.0937 62.9574 11.3502C62.4053 11.4783 61.9019 11.7632 61.508 12.1707C61.2045 12.553 60.8607 12.9014 60.4824 13.2099C59.8874 12.7919 59.3867 12.2539 59.0124 11.6305C59.0124 11.5827 60.3798 9.26489 60.4892 8.85467C60.9336 7.48724 61.8156 4.00715 60.4892 2.85852C60.3321 2.73089 60.157 2.62721 59.9696 2.55085C59.512 2.35858 59.0149 2.27887 58.5201 2.31838C55.3272 2.31838 53.3444 6.55056 55.0469 9.83921C55.8263 11.3707 55.6622 10.7827 55.3477 11.4664C54.3427 13.6748 51.2454 15.0833 53.3513 18.1121" fill="white"/>
<path fill-rule="evenodd" clip-rule="evenodd" d="M44.3197 28.7438C44.4215 28.9678 44.5628 29.1716 44.7368 29.3455C44.8798 29.4853 45.0465 29.5988 45.2291 29.6805C45.3859 29.7506 45.5515 29.7989 45.7213 29.8241C45.8593 29.8461 45.9987 29.8576 46.1384 29.8583C46.3991 29.8609 46.6589 29.8287 46.911 29.7626C47.1036 29.7115 47.2862 29.6283 47.4511 29.5164C47.5869 29.4243 47.705 29.3085 47.7998 29.1746C47.8793 29.0598 47.9394 28.9328 47.9776 28.7985C48.012 28.6831 48.0304 28.5635 48.0323 28.443C48.0365 28.2408 47.9895 28.0409 47.8955 27.8619C47.8069 27.7057 47.6856 27.5704 47.54 27.4653C47.3911 27.3605 47.2305 27.2733 47.0614 27.2055C46.8985 27.1389 46.7319 27.0818 46.5623 27.0346L46.07 26.8978C45.9314 26.8597 45.7964 26.8094 45.6666 26.7474C45.558 26.6995 45.4638 26.6241 45.3932 26.5286C45.3233 26.4234 45.2875 26.2993 45.2906 26.1731C45.2894 26.044 45.3276 25.9176 45.4 25.8107C45.4741 25.6978 45.5783 25.6078 45.7008 25.5509C45.8495 25.4858 46.0103 25.4532 46.1726 25.4552C46.3312 25.4554 46.4885 25.4831 46.6375 25.5372C46.7802 25.591 46.9121 25.6697 47.0272 25.7697C47.1426 25.8728 47.2357 25.9985 47.3007 26.1389L47.834 25.8859C47.7394 25.7023 47.6146 25.5359 47.4648 25.3937C47.3396 25.2779 47.1964 25.1833 47.0409 25.1133C46.9057 25.0521 46.7633 25.0084 46.617 24.9834C46.4896 24.9738 46.3616 24.9738 46.2341 24.9834C45.9441 24.9814 45.6563 25.0347 45.3863 25.1407C45.1542 25.2303 44.9509 25.3816 44.7983 25.5783C44.652 25.7758 44.5751 26.0162 44.5795 26.262C44.5747 26.4201 44.6075 26.5771 44.6753 26.7201C44.7351 26.8501 44.824 26.9647 44.9351 27.0551C45.046 27.1521 45.1704 27.2327 45.3043 27.2944C45.4436 27.3579 45.5876 27.4104 45.735 27.4516L46.1316 27.561L46.5418 27.6841C46.6732 27.7268 46.7993 27.7841 46.9178 27.855C47.0268 27.9207 47.1201 28.0094 47.1913 28.1148C47.2626 28.2295 47.2983 28.3628 47.2939 28.4977C47.2957 28.6475 47.2605 28.7955 47.1913 28.9284C47.1098 29.0714 46.9887 29.1877 46.8426 29.2635C46.6469 29.351 46.4349 29.3962 46.2205 29.3962C46.006 29.3962 45.794 29.351 45.5983 29.2635C45.4336 29.185 45.2869 29.0733 45.1675 28.9353C45.0575 28.8085 44.9717 28.6624 44.9146 28.5045L44.3197 28.7438ZM49.557 29.6737H50.2407V25.6398H51.2389V25.1612H50.268V23.3767H49.5843V25.1612H48.7228V25.6603H49.5501L49.557 29.6737ZM55.977 25.1612V27.896C55.987 28.0189 55.987 28.1424 55.977 28.2652C55.9553 28.3996 55.9162 28.5306 55.8608 28.655C55.8006 28.7872 55.7173 28.9076 55.6147 29.0105C55.4948 29.123 55.3528 29.2092 55.1976 29.2635C54.7844 29.3982 54.3391 29.3982 53.9259 29.2635C53.7712 29.2081 53.6293 29.1221 53.5088 29.0105C53.4067 28.9073 53.3233 28.7869 53.2627 28.655C53.2079 28.5304 53.1688 28.3995 53.1465 28.2652C53.1361 28.1424 53.1361 28.0189 53.1465 27.896V25.1612H52.4627V27.8345C52.4627 27.9029 52.4627 28.0054 52.4627 28.1285C52.4736 28.2697 52.4988 28.4094 52.5379 28.5456C52.583 28.7087 52.6497 28.8651 52.7362 29.0105C52.8338 29.1761 52.9613 29.3222 53.1123 29.4412C53.2904 29.5859 53.4946 29.695 53.7139 29.7626C54.0022 29.8488 54.3019 29.8903 54.6028 29.8856C54.8796 29.8736 55.1535 29.8229 55.4164 29.7352C55.6351 29.6664 55.8392 29.5574 56.018 29.4139C56.1658 29.2934 56.2908 29.1476 56.3872 28.9831C56.475 28.8383 56.5417 28.6818 56.5855 28.5182C56.6249 28.3822 56.6501 28.2424 56.6607 28.1012C56.6658 28.0032 56.6658 27.9051 56.6607 27.8072V25.1612H55.977ZM63.4021 29.6737V21.9888H62.7184V25.8449C62.5993 25.6568 62.449 25.4903 62.274 25.3526C62.1215 25.2382 61.9534 25.1461 61.7749 25.0791C61.6182 25.0202 61.4553 24.979 61.2895 24.9561C61.1551 24.9469 61.0204 24.9469 60.8861 24.9561C60.5113 24.9542 60.1389 25.0166 59.7853 25.1407C59.4707 25.2564 59.1808 25.4303 58.9307 25.6535C58.6914 25.8713 58.5004 26.1368 58.37 26.4329C58.23 26.7377 58.1555 27.0684 58.1512 27.4038C58.1469 27.7089 58.1979 28.0124 58.3016 28.2994C58.3971 28.5512 58.5385 28.783 58.7187 28.9831C58.8925 29.1802 59.0982 29.3466 59.3272 29.4754C59.556 29.6073 59.8023 29.7063 60.0588 29.7694C60.3161 29.8329 60.5801 29.865 60.845 29.8651C61.0906 29.8634 61.3346 29.8265 61.5698 29.7557C61.8147 29.6895 62.0462 29.5807 62.2535 29.4344C62.4582 29.2898 62.6325 29.1062 62.7663 28.8943V29.6737H63.4021ZM60.8314 29.3592C60.557 29.3592 60.2853 29.3058 60.0314 29.2019C59.8011 29.1048 59.5938 28.9604 59.4229 28.778C59.2558 28.5977 59.1258 28.3863 59.04 28.1558C58.8862 27.7395 58.8647 27.2858 58.9785 26.8568C59.0279 26.6713 59.1039 26.494 59.2041 26.3303C59.4133 25.9727 59.7429 25.7013 60.134 25.5646C60.3755 25.4802 60.6304 25.4408 60.8861 25.4483C61.1515 25.4487 61.4142 25.5022 61.6587 25.6056C61.8833 25.7057 62.0855 25.8499 62.2535 26.0295C62.4165 26.2117 62.544 26.4227 62.6295 26.6517C62.7227 26.8937 62.7691 27.1513 62.7663 27.4106C62.774 27.7723 62.6893 28.13 62.5201 28.4498C62.3631 28.739 62.1256 28.9765 61.8364 29.1336C61.5341 29.2961 61.1951 29.3785 60.8519 29.3729M65.2071 29.6874H65.8908V25.1612H65.2071V29.6874ZM64.9883 23.5955C64.9905 23.6829 65.0165 23.768 65.0635 23.8416C65.1135 23.915 65.1819 23.974 65.2618 24.0126C65.349 24.0551 65.4451 24.0762 65.5421 24.0741C65.6391 24.076 65.7352 24.0549 65.8225 24.0126C65.9001 23.9732 65.9661 23.9143 66.0139 23.8416C66.0633 23.769 66.0897 23.6833 66.0897 23.5955C66.0897 23.5077 66.0633 23.4219 66.0139 23.3494C65.965 23.2776 65.8992 23.219 65.8225 23.1784C65.7349 23.137 65.639 23.116 65.5421 23.1169C65.4452 23.1158 65.3494 23.1368 65.2618 23.1784C65.1829 23.2185 65.1148 23.2772 65.0635 23.3494C65.0165 23.423 64.9905 23.5081 64.9883 23.5955ZM70.1504 29.8583C70.5363 29.8597 70.9198 29.7974 71.2853 29.6737C71.6113 29.5604 71.9129 29.3864 72.1741 29.1609C72.418 28.9441 72.6137 28.6786 72.7485 28.3815C72.9577 27.9241 73.0149 27.4117 72.9115 26.9195C72.8081 26.4273 72.5497 25.9812 72.1741 25.6466C71.9129 25.4211 71.6113 25.2472 71.2853 25.1338C70.549 24.8858 69.7517 24.8858 69.0154 25.1338C68.6889 25.2461 68.3872 25.4202 68.1266 25.6466C67.8774 25.8673 67.678 26.1384 67.5414 26.4418C67.4048 26.7453 67.3342 27.0744 67.3342 27.4072C67.3342 27.74 67.4048 28.069 67.5414 28.3725C67.678 28.676 67.8774 28.9471 68.1266 29.1677C68.3872 29.3942 68.6889 29.5683 69.0154 29.6805C69.3808 29.8047 69.7644 29.8671 70.1504 29.8651M70.1504 29.366C69.8817 29.3665 69.6152 29.3179 69.3641 29.2224C69.1112 29.1391 68.8783 29.004 68.6804 28.8259C68.4914 28.6536 68.3401 28.4441 68.236 28.2105C68.1278 27.9565 68.0721 27.6833 68.0721 27.4072C68.0721 27.1311 68.1278 26.8579 68.236 26.6038C68.3399 26.3701 68.4912 26.1606 68.6804 25.9885C68.8783 25.8103 69.1112 25.6753 69.3641 25.5919C69.8714 25.404 70.4293 25.404 70.9366 25.5919C71.1891 25.6762 71.4218 25.8111 71.6203 25.9885C71.8109 26.1594 71.9625 26.3692 72.0648 26.6038C72.1729 26.8579 72.2286 27.1311 72.2286 27.4072C72.2286 27.6833 72.1729 27.9565 72.0648 28.2105C71.9623 28.445 71.8107 28.6549 71.6203 28.8259C71.4219 29.0034 71.1892 29.1383 70.9366 29.2224C70.6856 29.3182 70.419 29.3668 70.1504 29.366Z" fill="white"/>
<path fill-rule="evenodd" clip-rule="evenodd" d="M45.5159 16.7038C43.4648 19.2404 41.6871 19.1447 40.853 18.584C39.6838 17.5516 40.3265 15.7193 40.9555 14.6185C41.5846 13.5177 42.0837 14.2424 42.4734 14.4476C42.6853 14.5569 43.0819 14.6253 43.1571 14.1262C43.1721 13.9521 43.1495 13.7767 43.0907 13.6121C43.0319 13.4475 42.9383 13.2975 42.8164 13.1723C42.6944 13.0471 42.5469 12.9496 42.3839 12.8865C42.2209 12.8234 42.0462 12.7962 41.8717 12.8066C40.9466 12.742 40.0321 13.0352 39.317 13.6256C38.6019 14.216 38.1409 15.0585 38.0293 15.9791C37.9701 16.3383 37.9857 16.7059 38.0751 17.0588C38.1645 17.4118 38.3258 17.7425 38.5489 18.0302C39.4719 19.4865 40.3881 20.4232 42.3913 20.2933C43.957 20.1907 46.0355 18.5361 46.562 17.5584C47.0884 16.5807 45.9193 16.5671 45.5159 16.7311" fill="white"/>
<path fill-rule="evenodd" clip-rule="evenodd" d="M49.5568 17.4078C48.8731 17.4078 48.2988 18.2556 47.3416 18.0232C47.0404 17.9362 46.7701 17.7655 46.5621 17.5309C46.5621 17.5309 49.6525 14.9601 48.5176 13.6201C46.9587 12.0475 45.3793 13.0526 44.3401 13.9277C43.1846 14.8986 43.5538 16.895 43.8752 17.7087C44.2854 18.7479 46.4801 19.7188 47.451 19.7051C47.7508 19.7279 48.052 19.6822 48.3316 19.5714C48.6112 19.4606 48.8619 19.2877 49.0648 19.0657C49.2677 18.8437 49.4174 18.5784 49.5026 18.29C49.5879 18.0016 49.6064 17.6976 49.5568 17.401M45.5161 16.7173C44.4358 15.9652 45.3383 14.4542 45.9741 14.4542H46.0904C46.2066 14.461 46.316 14.5111 46.397 14.5947C46.478 14.6782 46.5247 14.7891 46.528 14.9054C46.3764 15.5981 46.0132 16.2265 45.4887 16.7036" fill="white"/>
</svg>
