<svg width="14" height="14" viewBox="0 0 14 14" fill="none" xmlns="http://www.w3.org/2000/svg">
<path fill-rule="evenodd" clip-rule="evenodd" d="M11.0572 3.8656C10.9 4.32368 10.7427 4.74758 10.6333 5.09628C10.8179 5.36976 11.1187 5.77999 11.4538 6.21073C12.5682 7.68754 14.004 9.5951 13.334 10.1626L13.2656 10.2241H13.1836C12.581 10.2739 11.9759 10.2876 11.3717 10.2651C10.3461 10.2651 9.1223 10.2651 8.58901 10.2651C8.33526 10.6344 8.10683 11.0204 7.9053 11.4206C7.27628 12.5556 6.5789 13.8341 5.71742 13.6358C4.85595 13.4376 4.35 10.0327 4.16539 8.93874V8.86353C3.83721 8.62423 2.87318 8.66525 2.02537 8.69944C1.57028 8.73561 1.11304 8.73561 0.657951 8.69944L0.281918 8.65158L0.00159347 8.46697C-0.0394292 7.63968 0.719491 6.7577 1.36902 6.25175C1.55362 6.10133 1.6972 5.97826 1.82027 5.86887C2.06594 5.63985 2.33392 5.436 2.62021 5.26037C2.59086 4.53275 2.52468 3.80709 2.42193 3.08616C2.27835 1.90334 2.15528 0.850428 2.59286 0.617966H2.63388C3.31759 0.32397 4.28846 0.72736 5.273 1.13759C6.10713 1.48628 6.95493 1.8213 7.32414 1.68456C7.44721 1.6367 7.71386 1.48628 8.04888 1.30852C9.26589 0.624804 11.2418 -0.414438 11.905 0.173554L12.117 0.358156L12.0759 0.645315C11.8188 1.73996 11.4876 2.81587 11.0846 3.8656" fill="#FFE167"/>
</svg>
